<svg width="163" height="165" viewBox="0 0 163 165" fill="none" xmlns="http://www.w3.org/2000/svg">
<path d="M81.4743 164.75C58.8237 164.75 28.3988 134.79 12.9506 105.07C-2.49757 75.36 -2.97907 56.73 5.48733 37.89C13.9638 19.05 31.3781 0 81.2436 0C131.109 0 148.523 19.05 156.99 37.89C165.456 56.73 164.985 75.36 149.527 105.07C134.078 134.79 103.654 164.75 81.0029 164.75" fill="#D2545B"/>
<path d="M81.2452 70.7617C81.2452 81.7217 72.3552 90.6117 61.3952 90.6117C50.4352 90.6117 41.5452 81.7217 41.5452 70.7617" stroke="white" stroke-width="9.88" stroke-linecap="round" stroke-linejoin="round"/>
<path d="M101.085 110.462C112.048 110.462 120.935 101.575 120.935 90.6117C120.935 79.6489 112.048 70.7617 101.085 70.7617C90.1223 70.7617 81.2351 79.6489 81.2351 90.6117C81.2351 101.575 90.1223 110.462 101.085 110.462Z" stroke="white" stroke-width="9.88" stroke-linecap="round" stroke-linejoin="round"/>
<path d="M81.2451 70.7621V33.9121" stroke="white" stroke-width="9.88" stroke-linecap="round" stroke-linejoin="round"/>
<path d="M81.2453 33.9121H61.3953" stroke="white" stroke-width="9.88" stroke-linecap="round" stroke-linejoin="round"/>
</svg>
