<?xml version="1.0" encoding="utf-8"?>
<!-- Generator: Adobe Illustrator 27.6.1, SVG Export Plug-In . SVG Version: 6.00 Build 0)  -->
<svg version="1.1" xmlns="http://www.w3.org/2000/svg" xmlns:xlink="http://www.w3.org/1999/xlink" x="0px" y="0px"
	 viewBox="0 0 469.7 126.1" style="enable-background:new 0 0 469.7 126.1;" xml:space="preserve">
<style type="text/css">
	.st0{fill:none;stroke:#000000;stroke-width:18.72;stroke-linecap:round;stroke-linejoin:round;}
</style>
<g id="圖層_2">
</g>
<g id="_圖層_1">
	<g>
		<g>
			<path class="st0" d="M84.5,79.1c0,20.8-16.8,37.6-37.6,37.6S9.4,99.9,9.4,79.1"/>
			<path class="st0" d="M122.1,116.7c20.8,0,37.6-16.8,37.6-37.6s-16.8-37.6-37.6-37.6S84.5,58.4,84.5,79.1S101.3,116.7,122.1,116.7
				z"/>
			<path class="st0" d="M197.3,116.7c20.8,0,37.6-16.8,37.6-37.6S218,41.5,197.3,41.5s-37.6,16.8-37.6,37.6S176.5,116.7,197.3,116.7
				z"/>
			<path class="st0" d="M272.4,116.7c20.8,0,37.6-16.8,37.6-37.6s-16.8-37.6-37.6-37.6s-37.6,16.8-37.6,37.6
				S251.7,116.7,272.4,116.7z"/>
			<path class="st0" d="M310,79.1c0-20.8,16.8-37.6,37.6-37.6s37.6,16.8,37.6,37.6"/>
			<path class="st0" d="M422.8,116.7c20.8,0,37.6-16.8,37.6-37.6s-16.8-37.6-37.6-37.6s-37.6,16.8-37.6,37.6S402,116.7,422.8,116.7
				L422.8,116.7z"/>
			<path class="st0" d="M84.5,79.1V9.4"/>
			<path class="st0" d="M159.7,79.1V9.4"/>
			<path class="st0" d="M460.4,79.1V9.4"/>
			<path class="st0" d="M84.5,9.4H46.9"/>
		</g>
	</g>
</g>
</svg>
