<?xml version="1.0" encoding="utf-8"?>
<!-- Generator: Adobe Illustrator 27.8.1, SVG Export Plug-In . SVG Version: 6.00 Build 0)  -->
<svg version="1.1" id="Layer_1" xmlns="http://www.w3.org/2000/svg" xmlns:xlink="http://www.w3.org/1999/xlink" x="0px" y="0px"
	 viewBox="0 0 512 512" style="enable-background:new 0 0 512 512;" xml:space="preserve">
<style type="text/css">
	.st0{fill:#FFFFFF;}
</style>
<g>
	<g>
		<path class="st0" d="M436,60h-75V45c0-24.8-20.2-45-45-45H196c-24.8,0-45,20.2-45,45v15H76c-24.8,0-45,20.2-45,45
			c0,19.9,13,36.9,31,42.8l26.8,323c1.9,23.1,21.6,41.3,44.8,41.3h244.8c23.2,0,42.9-18.1,44.8-41.3l26.8-323
			c18-5.9,31-22.8,31-42.8C481,80.2,460.8,60,436,60z M181,45c0-8.3,6.7-15,15-15h120c8.3,0,15,6.7,15,15v15H181V45z M393.3,468.2
			c-0.6,7.7-7.2,13.8-14.9,13.8H133.6c-7.7,0-14.3-6-14.9-13.7L92.3,150h327.4L393.3,468.2z M436,120H76c-8.3,0-15-6.7-15-15
			s6.7-15,15-15h360c8.3,0,15,6.7,15,15S444.3,120,436,120z"/>
	</g>
</g>
<g>
	<g>
		<path class="st0" d="M196,436.1l-15-242c-0.5-8.3-7.7-14.6-15.9-14c-8.3,0.5-14.6,7.6-14,15.9l15,242c0.5,8,7.1,14.1,15,14.1
			C189.7,452,196.5,444.7,196,436.1z"/>
	</g>
</g>
<g>
	<g>
		<path class="st0" d="M256,180c-8.3,0-15,6.7-15,15v242c0,8.3,6.7,15,15,15s15-6.7,15-15V195C271,186.7,264.3,180,256,180z"/>
	</g>
</g>
<g>
	<g>
		<path class="st0" d="M346.9,180c-8.2-0.5-15.4,5.8-15.9,14l-15,242c-0.5,8.3,5.8,15.4,14,15.9c8.3,0.5,15.4-5.8,15.9-14l15-242
			C361.5,187.7,355.2,180.5,346.9,180z"/>
	</g>
</g>
</svg>
