<?xml version="1.0" encoding="utf-8"?>
<!-- Generator: Adobe Illustrator 27.8.1, SVG Export Plug-In . SVG Version: 6.00 Build 0)  -->
<svg version="1.1" id="圖層_1" xmlns="http://www.w3.org/2000/svg" xmlns:xlink="http://www.w3.org/1999/xlink" x="0px" y="0px"
	 viewBox="0 0 511 511" style="enable-background:new 0 0 511 511;" xml:space="preserve">
<style type="text/css">
	.st0{fill:#FFFFFF;}
</style>
<path class="st0" d="M503.8,305.7c-5.8-3.6-13.3-2.9-18.4,1.7c-36.7,33.2-84.1,51.6-133.5,51.6C242.3,359,153,269.7,153,160.1
	c0-49.4,18.3-96.8,51.6-133.5c4.6-5.1,5.3-12.5,1.7-18.4c-3.6-5.8-10.7-8.5-17.2-6.6C77.7,33.1,0,136,0,251.9
	C0,395.3,116.7,512,260.1,512c115.8,0,218.8-77.7,250.3-189.1C512.3,316.3,509.6,309.3,503.8,305.7z"/>
<path class="st0" d="M253.4,202.9l36.2,18.1l18.1,36.3c2.6,5.2,7.9,8.5,13.7,8.5c5.8,0,11.1-3.3,13.7-8.5l18.1-36.3l36.2-18.1
	c5.2-2.6,8.5-7.9,8.5-13.7s-3.3-11.1-8.5-13.7l-36.2-18.1l-18.1-36.2c-5.2-10.4-22.2-10.4-27.4,0l-18.1,36.2l-36.2,18.1
	c-5.2,2.6-8.5,7.9-8.5,13.7S248.2,200.3,253.4,202.9z"/>
<path class="st0" d="M413.1,83.5h15.3v15.3c0,8.5,6.8,15.3,15.3,15.3s15.3-6.8,15.3-15.3V83.5h15.3c8.5,0,15.3-6.8,15.3-15.3
	c0-8.5-6.8-15.3-15.3-15.3H459V37.6c0-8.5-6.8-15.3-15.3-15.3s-15.3,6.8-15.3,15.3v15.3h-15.3c-8.5,0-15.3,6.8-15.3,15.3
	C397.8,76.7,404.7,83.5,413.1,83.5z"/>
</svg>
