<?xml version="1.0" encoding="UTF-8"?>
<svg id="_圖層_1" data-name="圖層 1" xmlns="http://www.w3.org/2000/svg" viewBox="0 0 49.07 46.95">
  <defs>
    <style>
      .cls-1 {
        fill: #221f20;
        stroke-width: 0px;
      }
    </style>
  </defs>
  <g>
    <g>
      <path class="cls-1" d="m12.27,46.95c-1.21,0-2.36-.75-2.79-1.95l-5.54-15.21c-.27-.75-.24-1.55.1-2.27.34-.72.93-1.26,1.68-1.54l4.54-1.65c.75-.27,1.55-.24,2.27.1.72.34,1.26.93,1.54,1.68l5.54,15.21c.56,1.54-.24,3.25-1.78,3.81,0,0,0,0,0,0l-4.54,1.65c-.33.12-.68.18-1.01.18Zm-1-20.26s-.09,0-.14.03l-4.54,1.65c-.14.05-.21.16-.24.22-.03.06-.07.18-.01.32l5.54,15.21c.08.22.32.33.54.25l4.54-1.65c.22-.08.33-.32.25-.54l-5.54-15.21c-.05-.14-.16-.21-.22-.24-.04-.02-.1-.04-.18-.04Z"/>
      <path class="cls-1" d="m6.11,45.46c-1.21,0-2.36-.75-2.79-1.95L.18,34.89c-.27-.75-.24-1.55.1-2.27s.93-1.26,1.68-1.54l1.77-.64c1.54-.56,3.25.24,3.81,1.78l3.14,8.61c.56,1.54-.24,3.25-1.78,3.81h0l-1.77.64c-.33.12-.68.18-1.01.18Zm-1.37-12.65s-.1,0-.14.03l-1.77.64c-.14.05-.21.16-.24.22-.03.06-.07.18-.01.32l3.14,8.61c.08.22.32.33.54.25l1.77-.64h0c.22-.08.33-.32.25-.54l-3.14-8.61c-.06-.17-.23-.28-.4-.28Z"/>
    </g>
    <g>
      <path class="cls-1" d="m36.8,46.95c-.34,0-.68-.06-1.01-.18l-4.54-1.65h0c-1.54-.56-2.34-2.27-1.78-3.81l5.54-15.21c.27-.75.82-1.34,1.54-1.68.72-.34,1.53-.37,2.27-.1l4.54,1.65c.75.27,1.34.82,1.68,1.54.34.72.37,1.53.1,2.27l-5.54,15.21c-.44,1.21-1.58,1.95-2.79,1.95Zm-4.68-4.22l4.54,1.65c.22.08.46-.03.54-.25l5.54-15.21c.05-.14.01-.27-.01-.32-.03-.06-.1-.17-.24-.22l-4.54-1.65c-.14-.05-.26-.01-.32.01-.06.03-.17.1-.22.24l-5.54,15.21c-.08.22.03.46.25.54h0Z"/>
      <path class="cls-1" d="m42.96,45.46c-.34,0-.68-.06-1.01-.18l-1.77-.64c-1.54-.56-2.34-2.27-1.78-3.81l3.14-8.61c.56-1.54,2.27-2.34,3.81-1.78l1.77.64c.75.27,1.34.82,1.68,1.54.34.72.37,1.53.1,2.27l-3.14,8.61c-.44,1.2-1.58,1.95-2.79,1.95Zm1.37-12.65c-.17,0-.34.11-.4.28l-3.14,8.61c-.08.22.03.46.25.54h0l1.77.64c.22.08.46-.03.54-.25l3.14-8.61c.05-.14.01-.26-.01-.32-.03-.06-.1-.17-.24-.22l-1.77-.64s-.1-.03-.14-.03Z"/>
    </g>
  </g>
  <path class="cls-1" d="m47.79,31.39l-2.48-.57c.36-1.57.55-3.19.55-4.82,0-5.97-2.53-11.71-6.94-15.75l1.72-1.88c4.94,4.51,7.77,10.94,7.77,17.63,0,1.82-.21,3.64-.61,5.39Z"/>
  <path class="cls-1" d="m1.69,32.94c-.68-2.24-1.03-4.58-1.03-6.94,0-6.59,2.63-12.73,7.4-17.28l1.76,1.84c-4.27,4.07-6.61,9.55-6.61,15.44,0,2.11.31,4.2.92,6.2l-2.44.74Z"/>
  <path class="cls-1" d="m24.53,2.55c5.49,0,10.83,1.94,15.04,5.46l-1.09,1.3c-3.9-3.27-8.86-5.06-13.95-5.06s-10.05,1.8-13.95,5.06l-1.09-1.3c4.21-3.52,9.55-5.46,15.04-5.46m0-2.55c-6.09,0-12.01,2.15-16.67,6.05-1.08.9-1.22,2.51-.32,3.59l1.09,1.3c.43.52,1.05.84,1.73.9.08,0,.15,0,.23,0,.6,0,1.17-.21,1.63-.59,3.44-2.88,7.82-4.47,12.32-4.47s8.87,1.59,12.32,4.47c.46.39,1.04.59,1.63.59.07,0,.15,0,.23,0,.67-.06,1.29-.38,1.73-.9l1.09-1.3c.9-1.08.76-2.68-.32-3.59C36.54,2.15,30.62,0,24.53,0h0Z"/>
</svg>