<?xml version="1.0" encoding="utf-8"?>
<!-- Generator: Adobe Illustrator 27.8.1, SVG Export Plug-In . SVG Version: 6.00 Build 0)  -->
<svg version="1.1" id="Capa_1" xmlns="http://www.w3.org/2000/svg" xmlns:xlink="http://www.w3.org/1999/xlink" x="0px" y="0px"
	 viewBox="0 0 512 512" style="enable-background:new 0 0 512 512;" xml:space="preserve">
<style type="text/css">
	.st0{fill-rule:evenodd;clip-rule:evenodd;fill:#FFFFFF;}
</style>
<g>
	<g id="图层_x0020_1">
		<path class="st0" d="M397.6,359.3L504,465.4c10.7,10.6,10.7,28,0,38.6c-10.7,10.6-28.1,10.6-38.7,0L358.8,397.8
			c-37.6,29.1-84.9,46.4-136.1,46.4c-61.5,0-117.1-24.9-157.4-65.1C24.9,338.9,0,283.4,0,222.1c0-61.3,24.9-116.8,65.2-157
			C105.5,24.9,161.1,0,222.6,0C284.1,0,339.7,24.9,380,65.1c40.3,40.2,65.2,95.7,65.2,157C445.2,273.9,427.4,321.5,397.6,359.3
			L397.6,359.3z M340.4,104.6c-30.1-30.1-71.8-48.7-117.8-48.7c-46,0-87.7,18.6-117.8,48.7C74.7,134.6,56,176.2,56,222.1
			c0,45.9,18.7,87.4,48.8,117.5c30.1,30.1,71.8,48.7,117.8,48.7c46,0,87.7-18.6,117.8-48.7c30.2-30.1,48.8-71.6,48.8-117.5
			C389.2,176.2,370.6,134.6,340.4,104.6L340.4,104.6z"/>
	</g>
</g>
</svg>
