<?xml version="1.0" encoding="UTF-8"?>
<svg id="_圖層_1" data-name="圖層 1" xmlns="http://www.w3.org/2000/svg" viewBox="0 0 41.8 49.57">
  <defs>
    <style>
      .cls-1 {
        fill: #221f20;
        stroke-width: 0px;
      }
    </style>
  </defs>
  <path class="cls-1 search_instrument" d="m32.65,18.31c-2.35,0-4.69-.89-6.48-2.68-3.57-3.57-3.57-9.38,0-12.96,3.57-3.57,9.38-3.57,12.95,0,3.57,3.57,3.57,9.38,0,12.96-1.79,1.79-4.13,2.68-6.48,2.68Zm0-15.77c-1.69,0-3.39.64-4.68,1.93-2.58,2.58-2.58,6.77,0,9.35,1.25,1.25,2.91,1.94,4.68,1.94s3.43-.69,4.68-1.94c2.58-2.58,2.58-6.77,0-9.35-1.29-1.29-2.98-1.93-4.68-1.93Z"/>
  <path class="cls-1 search_instrument" d="m37.83,16.32c-3.2-.21-6.22-1.58-8.49-3.85-2.27-2.27-3.64-5.29-3.85-8.49l2.54-.17c.17,2.59,1.28,5.02,3.11,6.86,1.84,1.84,4.27,2.94,6.86,3.11l-.17,2.54Z"/>
  <path class="cls-1 search_instrument" d="m27.45,22.34c-2.07-.14-4.02-1.02-5.49-2.49-1.47-1.47-2.35-3.42-2.49-5.49l2.54-.17c.1,1.45.72,2.82,1.75,3.86,1.03,1.03,2.4,1.65,3.86,1.75l-.17,2.54Z"/>
  <path class="cls-1 search_instrument" d="m12.25,34.68c-1.31,0-2.63-.5-3.62-1.5-1.93-1.93-2.01-5.03-.18-7.05l15.41-17.1,1.89,1.7-15.41,17.1c-.92,1.02-.88,2.58.09,3.55.97.97,2.53,1.01,3.55.09l16.75-15.09,1.7,1.89-16.75,15.09c-.98.88-2.2,1.32-3.43,1.32Z"/>
  <path class="cls-1 search_instrument" d="m8.18,37.44c-.98,0-1.96-.37-2.71-1.12-1.49-1.49-1.49-3.92,0-5.41l1.7-1.7,1.8,1.8-1.7,1.7c-.5.5-.5,1.31,0,1.81.5.5,1.31.5,1.81,0l1.7-1.7,1.8,1.8-1.7,1.7c-.75.75-1.73,1.12-2.71,1.12Z"/>
  <path class="cls-1 search_instrument" d="m24.14,49.57l-1.8-1.8,5.31-5.31c1.57-1.57,1.57-4.13,0-5.71-1.57-1.57-4.13-1.57-5.71,0l-10.66,10.66c-1.24,1.24-2.9,1.93-4.65,1.93s-3.41-.68-4.65-1.93l-.04-.04c-1.24-1.24-1.93-2.9-1.93-4.65s.68-3.41,1.93-4.65l3.54-3.54,1.8,1.8-3.54,3.54c-.76.76-1.18,1.78-1.18,2.85s.42,2.09,1.18,2.85l.04.04c.76.76,1.78,1.18,2.85,1.18s2.09-.42,2.85-1.18l10.66-10.66c2.57-2.57,6.74-2.57,9.31,0,2.57,2.57,2.57,6.74,0,9.31l-5.31,5.31Z"/>
</svg>