<?xml version="1.0" encoding="UTF-8"?>
<svg id="_圖層_1" data-name="圖層 1" xmlns="http://www.w3.org/2000/svg" viewBox="0 0 56.52 56.53">
  <defs>
    <style>
      .cls-1 {
        fill: #221f20;
        stroke-width: 0px;
      }
    </style>
  </defs>
  <path class="cls-1 search_instrument" d="m14.09,56.53c-.16,0-.32,0-.48,0-3.52-.12-6.87-1.61-9.44-4.17-5.33-5.33-5.59-13.73-.6-18.72,1.46-1.46,3.28-2.53,5.28-3.1,3.03-.87,5.5-2.76,6.93-5.33.45-.81,1.02-1.55,1.67-2.21,3.44-3.44,8.92-3.97,13.32-1.3l-1.32,2.18c-3.4-2.06-7.59-1.68-10.2.92-.49.49-.91,1.05-1.25,1.65-1.77,3.17-4.77,5.49-8.46,6.54-1.6.46-3.01,1.28-4.18,2.45-4,4-3.74,10.79.6,15.12,2.11,2.11,4.86,3.33,7.73,3.43,2.84.1,5.46-.91,7.39-2.84,1.17-1.17,1.99-2.57,2.45-4.18,1.05-3.68,3.37-6.69,6.54-8.46.61-.34,1.16-.76,1.65-1.25,2.68-2.68,3.01-6.94.81-10.38l2.15-1.37c2.85,4.45,2.37,10.03-1.15,13.55-.66.66-1.4,1.22-2.21,1.67-2.57,1.44-4.47,3.9-5.33,6.93-.57,2-1.64,3.82-3.1,5.28-2.32,2.32-5.44,3.59-8.81,3.59Z"/>
  <rect class="cls-1 search_instrument" x="21.16" y="19.14" width="24.66" height="2.55" transform="translate(-4.92 28.36) rotate(-43.05)"/>
  <rect class="cls-1 search_instrument" x="23.78" y="21.75" width="24.66" height="2.55" transform="translate(-5.37 33.69) rotate(-46.95)"/>
  <path class="cls-1 search_instrument" d="m45.92,15.77c-.33,0-.65-.12-.9-.37l-3.9-3.9c-.49-.49-.5-1.29,0-1.79l7.4-7.52c.24-.24.56-.38.9-.38h0c.34,0,.66.13.9.37l4.02,4.02c.24.24.37.57.37.91,0,.34-.14.66-.38.9l-7.52,7.4c-.25.24-.57.37-.89.37Zm-2.11-5.18l2.11,2.11,5.71-5.61-2.21-2.21-5.61,5.71Z"/>
  <path class="cls-1 search_instrument" d="m23.46,38.69c-1.5,0-2.91-.59-3.98-1.65-1.06-1.06-1.65-2.47-1.65-3.98s.58-2.91,1.65-3.98c1.06-1.06,2.47-1.65,3.98-1.65s2.91.59,3.98,1.65c1.06,1.06,1.65,2.47,1.65,3.98s-.59,2.91-1.65,3.98c-1.06,1.06-2.47,1.65-3.98,1.65Zm0-8.7c-.82,0-1.6.32-2.18.9-.58.58-.9,1.35-.9,2.18s.32,1.6.9,2.18c.58.58,1.35.9,2.18.9s1.6-.32,2.18-.9c.58-.58.9-1.35.9-2.18s-.32-1.6-.9-2.18c-.58-.58-1.35-.9-2.18-.9Z"/>
  <rect class="cls-1 search_instrument" x="11.9" y="38.96" width="2.55" height="8.78" transform="translate(-26.79 22.01) rotate(-45)"/>
  <g>
    <rect class="cls-1 search_instrument" x="39.36" y="6" width="2.55" height="2.42" transform="translate(6.81 30.85) rotate(-45)"/>
    <rect class="cls-1 search_instrument" x="42.09" y="3.27" width="2.55" height="2.42" transform="translate(9.53 31.98) rotate(-45)"/>
    <rect class="cls-1 search_instrument" x="44.81" y=".55" width="2.55" height="2.42" transform="translate(12.26 33.1) rotate(-45)"/>
  </g>
  <g>
    <rect class="cls-1 search_instrument" x="48.04" y="14.67" width="2.55" height="2.42" transform="translate(3.21 39.52) rotate(-45)"/>
    <rect class="cls-1 search_instrument" x="50.77" y="11.95" width="2.55" height="2.42" transform="translate(5.94 40.65) rotate(-45)"/>
    <rect class="cls-1 search_instrument" x="53.49" y="9.22" width="2.55" height="2.42" transform="translate(8.66 41.78) rotate(-45)"/>
  </g>
</svg>