<?xml version="1.0" encoding="UTF-8"?>
<svg id="_圖層_1" data-name="圖層 1" xmlns="http://www.w3.org/2000/svg" viewBox="0 0 58.89 45.17">
  <defs>
    <style>
      .cls-1 {
        fill: #221f20;
        stroke-width: 0px;
      }
    </style>
  </defs>
  <path class="cls-1" d="m27.17,16.39h-11.36c-.7,0-1.27-.57-1.27-1.27v-6.03c0-.7.57-1.27,1.27-1.27h11.36c.7,0,1.27.57,1.27,1.27v6.03c0,.7-.57,1.27-1.27,1.27Zm-10.09-2.55h8.82v-3.49h-8.82v3.49Z"/>
  <path class="cls-1" d="m43.73,18.3h-11.36c-.7,0-1.27-.57-1.27-1.27v-6.03c0-.7.57-1.27,1.27-1.27h11.36c.7,0,1.27.57,1.27,1.27v6.03c0,.7-.57,1.27-1.27,1.27Zm-10.09-2.55h8.82v-3.49h-8.82v3.49Z"/>
  <path class="cls-1" d="m18.33,34.08h-7.77c-.7,0-1.27-.57-1.27-1.27v-14.5c0-.7.57-1.27,1.27-1.27h12.71c.7,0,1.27.57,1.27,1.27v4.09h-2.55v-2.81h-10.16v11.95h6.5v2.55Z"/>
  <path class="cls-1" d="m46.51,32.98h-6.35v-2.55h5.08v-7.44h-10.7v-2.55h11.97c.7,0,1.27.57,1.27,1.27v9.99c0,.7-.57,1.27-1.27,1.27Z"/>
  <path class="cls-1" d="m29.45,43.13c-6.61,0-11.98-5.38-11.98-11.98s5.38-11.98,11.98-11.98,11.98,5.38,11.98,11.98-5.38,11.98-11.98,11.98Zm0-21.42c-5.2,0-9.44,4.23-9.44,9.44s4.23,9.44,9.44,9.44,9.44-4.23,9.44-9.44-4.23-9.44-9.44-9.44Z"/>
  <path class="cls-1" d="m8.99,7.13c-1.33,0-2.57-.09-3.61-.28-2.27-.41-3.48-1.24-3.58-2.49C1.52,1.07,9.41.24,11,.11c2.3-.19,4.51-.13,6.2.17,2.27.41,3.48,1.24,3.58,2.49.28,3.29-7.62,4.12-9.21,4.25-.89.07-1.76.11-2.59.11Zm-4.17-3.02c1.06.34,3.34.64,6.55.38,3.21-.27,5.41-.95,6.4-1.46-1.06-.34-3.34-.64-6.55-.38-3.21.27-5.41.95-6.4,1.46Z"/>
  <rect class="cls-1" x="18.25" y="40.42" width="5.59" height="2.55" transform="translate(-23.32 27.09) rotate(-45)"/>
  <rect class="cls-1" x="36.57" y="38.9" width="2.55" height="5.59" transform="translate(-18.4 38.97) rotate(-45)"/>
  <rect class="cls-1" x="2.65" y="11.66" width="2.55" height="30.9"/>
  <rect class="cls-1" x=".63" y="41.66" width="3.81" height="2.55" transform="translate(-28.86 13.55) rotate(-43.51)"/>
  <rect class="cls-1" x="4.03" y="41.03" width="2.55" height="3.81" transform="translate(-29.49 17.22) rotate(-46.49)"/>
  <rect class="cls-1" x="-.61" y="8.59" width="13.94" height="2.55" transform="translate(-4.62 5.72) rotate(-36.53)"/>
  <path class="cls-1" d="m49.91,7.13c-1.17,0-2.14-.07-2.59-.11-2.3-.19-4.47-.62-6.09-1.2-2.17-.78-3.22-1.8-3.12-3.05h0c.1-1.25,1.31-2.09,3.58-2.49,1.69-.3,3.9-.36,6.2-.17,2.3.19,4.47.62,6.09,1.2,2.17.78,3.22,1.8,3.12,3.05-.2,2.35-4.29,2.77-7.19,2.77Zm-8.78-4.1c.99.51,3.19,1.19,6.4,1.46,3.21.27,5.49-.04,6.55-.38-.99-.51-3.19-1.19-6.4-1.46-3.21-.27-5.49.04-6.55.38Z"/>
  <rect class="cls-1" x="53.7" y="11.66" width="2.55" height="30.9"/>
  <rect class="cls-1" x="55.08" y="41.03" width="2.55" height="3.81" transform="translate(-13.59 54.24) rotate(-46.49)"/>
  <rect class="cls-1" x="51.68" y="41.66" width="3.81" height="2.55" transform="translate(-14.84 48.68) rotate(-43.51)"/>
  <rect class="cls-1" x="51.26" y="2.89" width="2.55" height="13.94" transform="translate(13.34 46.2) rotate(-53.47)"/>
  <rect class="cls-1" x="19.78" y="14.69" width="2.55" height="3.14"/>
  <rect class="cls-1" x="36.77" y="17.32" width="2.55" height="4.4"/>
</svg>