<?xml version="1.0" encoding="UTF-8"?>
<svg id="_圖層_1" data-name="圖層 1" xmlns="http://www.w3.org/2000/svg" viewBox="0 0 58.4 58.4">
  <defs>
    <style>
      .cls-1 {
        fill: #221f20;
        stroke-width: 0px;
      }
    </style>
  </defs>
  <path class="cls-1 search_instrument" d="m15.23,58.4c-.18,0-.36,0-.54,0-3.79-.14-7.4-1.74-10.17-4.51C1.75,51.11.15,47.49,0,43.7c-.14-3.82,1.22-7.37,3.84-9.99,1.58-1.58,3.57-2.74,5.74-3.34,2.6-.72,4.78-2.72,5.84-5.34.61-1.51,1.5-2.86,2.65-4.01l.09-.09c1.68-1.65,4.11-2.19,6.35-1.41,2.23.78,3.8,2.72,4.09,5.05.08.68.25,1.35.49,2l-2.39.89c-.31-.83-.52-1.69-.63-2.57-.17-1.39-1.07-2.5-2.4-2.96-1.33-.47-2.73-.16-3.73.82l-.07.07c-.91.91-1.61,1.97-2.09,3.17-1.35,3.35-4.16,5.9-7.52,6.84-1.78.5-3.33,1.4-4.62,2.69-2.11,2.11-3.21,4.98-3.09,8.09.12,3.15,1.45,6.15,3.77,8.46,2.31,2.31,5.32,3.65,8.46,3.77,3.11.12,5.98-.98,8.09-3.09,1.29-1.29,2.2-2.85,2.69-4.62.93-3.36,3.49-6.17,6.84-7.52,1.19-.48,2.26-1.19,3.16-2.09.99-.99,1.74-2.17,2.21-3.48-2.72.07-5.41-.85-7.58-2.65l1.62-1.96c2.1,1.74,4.79,2.43,7.4,1.89.41-.09.84.04,1.14.33.3.29.44.72.37,1.13-.44,2.51-1.6,4.77-3.37,6.54-1.15,1.15-2.5,2.04-4.01,2.65-2.62,1.06-4.61,3.24-5.34,5.84-.61,2.17-1.76,4.16-3.34,5.74-2.49,2.49-5.83,3.85-9.45,3.85Z"/>
  <g>
    <path class="cls-1 search_instrument" d="m24.55,39.08c-.34,0-.66-.13-.9-.37l-3.95-3.95c-.24-.24-.38-.58-.37-.92,0-.35.15-.67.4-.91l22.75-21.26,1.74,1.86-21.79,20.36,2.09,2.09,20.51-21.96,1.86,1.74-21.41,22.92c-.24.25-.56.4-.91.4,0,0-.01,0-.02,0Z"/>
    <path class="cls-1 search_instrument" d="m47.27,17.18c-.33,0-.65-.12-.9-.37l-4.78-4.79c-.49-.49-.5-1.29,0-1.79L50.65,1.01c.24-.24.56-.38.9-.38.33,0,.67.13.91.37l4.94,4.94c.24.24.37.57.37.91,0,.34-.14.66-.38.9l-9.23,9.07c-.25.24-.57.37-.89.37Zm-2.99-6.07l3,3,7.41-7.29-3.12-3.12-7.29,7.41Z"/>
    <g>
      <rect class="cls-1 search_instrument" x="41.19" y="3.81" width="2.55" height="2.97" transform="translate(8.69 31.57) rotate(-45)"/>
      <rect class="cls-1 search_instrument" x="44.53" y=".47" width="2.55" height="2.97" transform="translate(12.04 32.96) rotate(-45)"/>
    </g>
    <g>
      <rect class="cls-1 search_instrument" x="51.83" y="14.45" width="2.55" height="2.97" transform="translate(4.28 42.22) rotate(-45)"/>
      <rect class="cls-1 search_instrument" x="55.17" y="11.11" width="2.55" height="2.97" transform="translate(7.63 43.6) rotate(-45)"/>
    </g>
  </g>
  <g>
    <rect class="cls-1 search_instrument" x="11.3" y="37.93" width="2.55" height="7.75" transform="translate(-25.88 21.13) rotate(-45)"/>
    <rect class="cls-1 search_instrument" x="17.12" y="46.29" width="2.55" height="2.67" transform="translate(-28.29 26.95) rotate(-45)"/>
  </g>
</svg>