<svg height="512" viewBox="0 0 64 64" width="512" xmlns="http://www.w3.org/2000/svg"><g id="_10-beer_cheers" data-name="10-beer cheers"><circle cx="5" cy="5" fill="#ffd241" r="5"/><circle cx="29" cy="59" fill="#ffd241" r="5"/><path d="m10 43-3.97.46-1.22-7.29 4.19-1.17-1-2.83-7 1 2 14 7-1z" fill="#d1d3d4"/><path d="m53 43 6 2.17-2 6-6-2.17-1 3.17 9 3 4-12-9-3.17z" fill="#d1d3d4"/><path d="m32 47-4-25-21 4 4 25.17a31.44 31.44 0 0 0 12 .83c7-1 9-5 9-5z" fill="#ffd241"/><path d="m31 42 1 6s-6 5-12 5-9-2-9-2l-1-4.83a17.36 17.36 0 0 0 13 1.83c7-2 8-6 8-6z" fill="#ffb028"/><path d="m38 19-10 28.17s1 4 9 7 12 1 12 1l10-29.17z" fill="#ffd241"/><g fill="#f1f2f2"><path d="m16.06 24.58a6 6 0 0 0 10.68-1.67 6 6 0 0 0 4.26-6.23 6.08 6.08 0 0 0 -5.61-5.5 6 6 0 0 0 -3.54.91 4 4 0 0 0 -7.34-.79 6 6 0 0 0 -9.51 4.87 4.63 4.63 0 0 0 0 .54 4 4 0 0 0 2 7.46l1.6 10.41a2.51 2.51 0 0 0 3 2.08 2.52 2.52 0 0 0 2-2.91l-1.6-8.58z"/><circle cx="6" cy="61" r="2"/><circle cx="58" cy="5" r="2"/><path d="m63 24.17a4 4 0 0 0 -3.11-3.89 5 5 0 0 0 -3.89-8.11 4.93 4.93 0 0 0 -1.09.13 5 5 0 0 0 -8.91-2.11 5 5 0 0 0 -8 4 5.58 5.58 0 0 0 .1 1h-.1a4 4 0 1 0 0 8 3.81 3.81 0 0 0 1.08-.19 5 5 0 0 0 8.56 2.58l.36-.41-4.21 10.1a2.22 2.22 0 0 0 1.06 2.83 2.21 2.21 0 0 0 3-1.16l2.21-5.52a2.22 2.22 0 0 1 3.07-1.16 2.23 2.23 0 0 1 1.07 2.82l-.47 1.16a2.26 2.26 0 0 0 4.21 1.76s5.06-10.65 5.06-11.83z"/></g><path d="m50 51.17s-4 2-12-1-9-6-9-6l-1 2.83a18 18 0 0 0 9 7 28 28 0 0 0 12 1z" fill="#ffb028"/><path d="m38.66 23.1a12 12 0 0 1 9.56-8 8 8 0 0 1 5.11-5.69 5 5 0 0 0 -7.33.73 5 5 0 0 0 -8 4 5.58 5.58 0 0 0 .1 1h-.1a4 4 0 1 0 0 8 3.51 3.51 0 0 0 .66-.04z" fill="#d1d3d4"/><path d="m38.35 24.16a6 6 0 0 0 7.43 3.74l-2.91 7a3.21 3.21 0 0 0 1.53 4.1 3.21 3.21 0 0 0 4.42-1.68l2.18-5.53a1.22 1.22 0 0 1 .7-.69 1.26 1.26 0 0 1 1 0 1.23 1.23 0 0 1 .59 1.56l-.47 1.16a3.26 3.26 0 0 0 6 2.5l2.06-4.8a1 1 0 1 0 -1.84-.79l-2.04 4.85a1.21 1.21 0 0 1 -.72.68 1.18 1.18 0 0 1 -1 0 1.26 1.26 0 0 1 -.61-1.59l.47-1.17a3.23 3.23 0 1 0 -6-2.4l-2.14 5.47a1.21 1.21 0 0 1 -1.67.63 1.21 1.21 0 0 1 -.57-1.55l4.2-10.09a1 1 0 0 0 -1.83-.79.75.75 0 0 0 -.18.13 4 4 0 0 1 -6.84-2.06 1 1 0 0 0 -.46-.68 1 1 0 0 0 -.85-.16 2.77 2.77 0 0 1 -.8.13 3 3 0 0 1 0-6h.15a1 1 0 0 0 .77-.36 1 1 0 0 0 .21-.81 5.49 5.49 0 0 1 -.08-.84 4 4 0 0 1 4-4 4 4 0 0 1 2.4.82 1 1 0 0 0 .74.19 1 1 0 0 0 .66-.39 4 4 0 0 1 7.12 1.69 1 1 0 0 0 .44.66 1 1 0 0 0 .77.14 4 4 0 0 1 4 6.38 1 1 0 0 0 -.16 1 1 1 0 0 0 .72.64 3 3 0 0 1 -.74 5.92 1 1 0 0 0 0 2 5 5 0 0 0 2.38-9.38 5.84 5.84 0 0 0 .62-2.62 6 6 0 0 0 -6-6h-.35a6 6 0 0 0 -9.83-2.3 5.94 5.94 0 0 0 -2.82-.7 6 6 0 0 0 -6 6v.1a5 5 0 0 0 1.35 9.89z"/><path d="m37.05 31.86-3 9a1 1 0 0 0 .63 1.26.93.93 0 0 0 .32.05 1 1 0 0 0 1-.68l3-9a1 1 0 1 0 -1.9-.63z"/><path d="m51.32 36.22a1 1 0 0 0 -1.27.64l-3 9a1 1 0 0 0 .63 1.26.93.93 0 0 0 .32.05 1 1 0 0 0 1-.68l3-9a1 1 0 0 0 -.68-1.27z"/><path d="m43 39.22a1 1 0 0 0 -1.26.64l-1.67 5a1 1 0 0 0 .63 1.26.93.93 0 0 0 .32.05 1 1 0 0 0 1-.68l1.67-5a1 1 0 0 0 -.69-1.27z"/><path d="m63.32 42.22-6-2a1 1 0 0 0 -.64 1.9l5.06 1.69-3.37 10.1-7.11-2.37 3.69-11a1 1 0 1 0 -1.9-.63l-3.48 10.39s-3.8 1.74-11.21-1c-5.82-2.19-7.7-4.32-8.23-5.1l5.81-16.7a1 1 0 0 0 -1.88-.66l-7 20a1 1 0 0 0 0 .58c0 .18 1.22 4.54 9.62 7.69a24 24 0 0 0 8.43 1.71 10.54 10.54 0 0 0 4.37-.75 1 1 0 0 0 .5-.58l.68-2.05 8 2.68a.93.93 0 0 0 .32.05 1 1 0 0 0 1-.68l4-12a1 1 0 0 0 -.66-1.27zm-26 11c-6.2-2.33-7.91-5.24-8.29-6.08l.29-.83c1.26 1.28 3.68 3.05 8.3 4.78a24 24 0 0 0 8.43 1.71 14 14 0 0 0 2.74-.25l-.62 1.84c-1.07.37-4.71 1.14-10.82-1.15z"/><path d="m54.32 49.22a1 1 0 0 0 -.64 1.9l3 1a.93.93 0 0 0 .32.05 1 1 0 0 0 1-.68l2-6a1 1 0 0 0 -.63-1.27l-3-1a1 1 0 0 0 -.64 1.9l2.06.69-1.37 4.1z"/><path d="m28.88 24.18a1 1 0 0 0 -.88 1.12l1 8a1 1 0 0 0 1 .87h.12a1 1 0 0 0 .88-1.12l-1-8a1 1 0 0 0 -1.12-.87z"/><path d="m27.31 52.1a1 1 0 1 0 -.75-1.85 28.4 28.4 0 0 1 -2.83 1 18.84 18.84 0 0 1 -11.83-.73l-.4-2.39a17.78 17.78 0 0 0 6.5 1.16h.32a29.54 29.54 0 0 0 6.93-.89 1 1 0 0 0 -.48-1.94 27.59 27.59 0 0 1 -6.75.83 14.57 14.57 0 0 1 -6.91-1.6l-1.11-6.69a1 1 0 0 0 -2 .33l.45 2.67-1.6.31-.85-5.31 2.49-.46a3.69 3.69 0 0 0 .62.56 3.47 3.47 0 0 0 2 .64 3.42 3.42 0 0 0 .71-.07 3.53 3.53 0 0 0 2.76-4.07l-1.58-8.6a1 1 0 0 0 -2 .36l1.56 8.58a1.53 1.53 0 0 1 -1.2 1.75 1.49 1.49 0 0 1 -1.16-.25 1.46 1.46 0 0 1 -.63-1l-1.57-10.44a1 1 0 0 0 -1-.85 3 3 0 0 1 -1.48-5.59 1 1 0 0 0 .5-.95c0-.15 0-.3 0-.46a5 5 0 0 1 7.91-4.06 1 1 0 0 0 .8.16 1 1 0 0 0 .66-.5 3 3 0 0 1 5.5.59 1 1 0 0 0 .6.66 1 1 0 0 0 .89-.09 5 5 0 0 1 7.62 3.85 5 5 0 0 1 -3.55 5.24 1 1 0 0 0 -.67.66 5 5 0 0 1 -8.89 1.34 1 1 0 0 0 -1.65 1.14 7 7 0 0 0 12.29-1.44 7 7 0 0 0 4.47-7.1 7.11 7.11 0 0 0 -6.55-6.41 6.84 6.84 0 0 0 -3.1.52 5 5 0 0 0 -8.15-.71 7 7 0 0 0 -10.2 6.17 5 5 0 0 0 2.13 8.93l1 6.19-6.22.89a1 1 0 0 0 -.91 1.13l2 14a1 1 0 0 0 1 .86h.14l6.2-.88.66 4.05a1.06 1.06 0 0 0 .54.73 20.56 20.56 0 0 0 8.46 1.8 18.79 18.79 0 0 0 5.27-.74 30.06 30.06 0 0 0 3.04-1.03zm-23.46-6.1-1.72-12 5.26-.75.21 1.36-3 .56a1 1 0 0 0 -.8 1.15l1.2 7.31a1 1 0 0 0 .42.65 1 1 0 0 0 .57.18.62.62 0 0 0 .19 0l2.56-.5.26 1.35z"/><path d="m23.88 29.18a1 1 0 0 0 -.88 1.12l1 8a1 1 0 0 0 1 .87h.12a1 1 0 0 0 .88-1.12l-1-8a1 1 0 0 0 -1.12-.87z"/><path d="m17.88 32.18a1 1 0 0 0 -.88 1.12l1 8a1 1 0 0 0 1 .87h.12a1 1 0 0 0 .88-1.12l-1-8a1 1 0 0 0 -1.12-.87z"/><path d="m32 6a1 1 0 0 0 1-1v-4a1 1 0 0 0 -2 0v4a1 1 0 0 0 1 1z"/><path d="m23.55 6.89 4 2a.93.93 0 0 0 .45.11 1 1 0 0 0 .89-.55 1 1 0 0 0 -.44-1.34l-4-2a1 1 0 0 0 -.9 1.78z"/><path d="m35.11 8.45a1 1 0 0 0 .89.55.93.93 0 0 0 .45-.11l4-2a1 1 0 0 0 -.9-1.78l-4 2a1 1 0 0 0 -.44 1.34z"/><path d="m27 3h2v2h-2z"/><path d="m35 3h2v2h-2z"/><path d="m6 58a3 3 0 1 0 3 3 3 3 0 0 0 -3-3zm0 4a1 1 0 1 1 1-1 1 1 0 0 1 -1 1z"/><path d="m58 8a3 3 0 1 0 -3-3 3 3 0 0 0 3 3zm0-4a1 1 0 1 1 -1 1 1 1 0 0 1 1-1z"/><path d="m29 60a1 1 0 0 0 -1 1v2a1 1 0 0 0 2 0v-2a1 1 0 0 0 -1-1z"/><path d="m29 58a1 1 0 0 0 1-1v-2a1 1 0 0 0 -2 0v2a1 1 0 0 0 1 1z"/><path d="m27 58h-2a1 1 0 0 0 0 2h2a1 1 0 0 0 0-2z"/><path d="m33 58h-2a1 1 0 0 0 0 2h2a1 1 0 0 0 0-2z"/><path d="m5 6a1 1 0 0 0 -1 1v2a1 1 0 0 0 2 0v-2a1 1 0 0 0 -1-1z"/><path d="m5 4a1 1 0 0 0 1-1v-2a1 1 0 0 0 -2 0v2a1 1 0 0 0 1 1z"/><path d="m1 6h2a1 1 0 0 0 0-2h-2a1 1 0 0 0 0 2z"/><path d="m7 6h2a1 1 0 0 0 0-2h-2a1 1 0 0 0 0 2z"/></g></svg>