<svg id="Capa_1" enable-background="new 0 0 512 512" height="512" viewBox="0 0 512 512" width="512" xmlns="http://www.w3.org/2000/svg"><g><g><path d="m438.233 7.5h-364.466c-18.299 0-33.133 14.834-33.133 33.133v236.631h430.733v-236.631c0-18.299-14.835-33.133-33.134-33.133zm-107.288 92.775h-21.93c-5.538 4.16-12.422 6.625-19.881 6.625-6.037 0-60.23 0-66.267 0-7.46 0-14.343-2.465-19.881-6.625h-23.967v-47.671h18.353c6.078-7.314 15.243-11.971 25.496-11.971h66.267c10.293 0 19.49 4.694 25.567 12.057h16.244v47.585z" fill="#d88a55"/><path d="m438.233 7.5h-22.922c18.299 0 33.133 14.834 33.133 33.133v236.631h22.922v-236.631c.001-18.299-14.834-33.133-33.133-33.133z" fill="#c57a44"/><g><path d="m369.532 73.767v5h-47.266v-5c-4.575 0-8.283-3.709-8.283-8.283v-8.284c0-9.15 7.417-16.567 16.567-16.567h30.699c9.15 0 16.567 7.417 16.567 16.567v8.283c0 4.575-3.709 8.284-8.284 8.284z" fill="#f1f6f7"/><path d="m380.25 40.633h-22.922c9.15 0 16.567 7.417 16.567 16.567v8.283c0 4.575-3.709 8.283-8.283 8.283v5h22.922v-5c4.575 0 8.283-3.709 8.283-8.283v-8.283c0-9.15-7.417-16.567-16.567-16.567z" fill="#e1ebf0"/><path d="m415.61 250.663c-2.831-16.882-15.397-30.482-32.003-34.635-3.458-.865-5.976-3.846-6.249-7.4l-7.529-97.875c-.152-1.978 1.163-3.797 3.105-4.202 7.418-1.548 13.015-8.058 13.162-15.9.174-9.284-7.712-16.883-16.998-16.883h-46.397c-9.286 0-17.172 7.599-16.998 16.883.147 7.843 5.744 14.352 13.162 15.9 1.942.405 3.258 2.224 3.106 4.202l-7.663 99.612c-.246 3.195-2.911 5.663-6.115 5.663-16.606 4.154-29.172 17.753-32.003 34.635l-3.622 21.601v16.207h146.665v-16.207z" fill="#a0d977"/><path d="m405.886 216.99-7.73 1.257-9.623-8.642 3.186-61.289-2.89-37.564c-.152-1.978 1.163-3.797 3.105-4.202 7.418-1.548 13.015-8.058 13.162-15.901.174-9.284-7.712-16.883-16.998-16.883h-22.922c9.286 0 17.172 7.599 16.998 16.883-.147 7.843-5.744 14.352-13.162 15.901-1.942.405-3.258 2.224-3.105 4.202l7.529 97.875c.273 3.554 2.79 6.535 6.249 7.4 16.606 4.154 29.172 17.753 32.003 34.635l3.622 21.601v16.207h22.922v-16.207l-3.622-21.601c-2.64-15.751-13.758-28.642-28.724-33.672z" fill="#7cd682"/><path d="m397.149 217.344-8.616-7.738 3.186-61.289h-72.639v.001l-4.773 62.047c-.246 3.195-2.91 5.663-6.115 5.663-1.112.278-2.204.602-3.277.963l-.001.005 37.03 16.458c8.567 3.808 18.346 3.808 26.913 0l24.882-11.058z" fill="#ffe880"/><path d="m404.296 216.489c-.013-.004-.026-.008-.04-.012-.544-.16-1.094-.31-1.648-.449-3.458-.865-5.976-3.846-6.249-7.4l-4.64-60.31h-22.922l4.64 60.31c.273 3.554 2.79 6.535 6.249 7.4 5.125 1.282 9.864 3.466 14.052 6.367l12.148-5.399-.001-.005h-.001c-.524-.178-1.054-.345-1.588-.502z" fill="#ffd261"/></g><g><path d="m170.732 73.767v5h-47.266v-5c-4.575 0-8.283-3.709-8.283-8.283v-8.284c0-9.15 7.417-16.567 16.567-16.567h30.699c9.149 0 16.567 7.417 16.567 16.567v8.283c0 4.575-3.709 8.284-8.284 8.284z" fill="#f1f6f7"/><path d="m181.45 40.633h-22.922c9.15 0 16.567 7.417 16.567 16.567v8.283c0 4.575-3.709 8.283-8.284 8.283v5h22.922v-5c4.575 0 8.283-3.709 8.283-8.283v-8.283c.001-9.15-7.416-16.567-16.566-16.567z" fill="#e1ebf0"/><path d="m216.81 250.663c-2.831-16.882-15.397-30.482-32.003-34.635-3.458-.865-5.976-3.846-6.249-7.4l-7.529-97.875c-.152-1.978 1.163-3.797 3.105-4.202 7.418-1.548 13.015-8.058 13.162-15.9.175-9.341-7.655-16.883-16.998-16.883h-46.397c-9.343 0-17.173 7.542-16.998 16.883.147 7.843 5.744 14.352 13.162 15.9 1.942.405 3.258 2.22 3.106 4.198-1.258 16.358-6.167 80.164-7.663 99.617-.246 3.195-2.91 5.661-6.115 5.661-16.606 4.154-29.172 17.753-32.003 34.635l-3.622 21.601v16.207h146.665v-16.207z" fill="#a0d977"/><path d="m207.086 216.99-7.73 1.257-9.623-8.642 3.186-61.289-2.89-37.564c-.152-1.978 1.163-3.797 3.105-4.202 7.418-1.548 13.015-8.058 13.162-15.901.174-9.284-7.712-16.883-16.998-16.883h-22.922c9.286 0 17.172 7.599 16.998 16.883-.147 7.843-5.744 14.352-13.162 15.901-1.942.405-3.258 2.224-3.105 4.202l7.529 97.875c.273 3.554 2.791 6.535 6.249 7.4 16.606 4.154 29.172 17.753 32.003 34.635l3.623 21.601v16.207h22.922v-16.207l-3.622-21.601c-2.641-15.751-13.76-28.642-28.725-33.672z" fill="#7cd682"/><path d="m198.349 217.344-8.616-7.738 3.186-61.289h-72.639v.001l-4.773 62.047c-.246 3.195-2.91 5.663-6.115 5.663-1.112.278-2.204.602-3.277.963l-.001.005 37.03 16.458c8.567 3.808 18.346 3.808 26.913 0l24.882-11.058z" fill="#ffe880"/><path d="m205.496 216.489c-.013-.004-.026-.008-.04-.012-.544-.16-1.094-.31-1.648-.449-3.459-.865-5.976-3.846-6.249-7.4l-4.64-60.31h-22.922l4.64 60.31c.273 3.554 2.791 6.535 6.249 7.4 5.125 1.282 9.864 3.466 14.052 6.367l12.148-5.399-.001-.005h-.001c-.524-.178-1.054-.345-1.588-.502z" fill="#ffd261"/></g><path d="m7.5 288.83v182.536c0 18.299 14.834 33.133 33.133 33.133h430.733c18.299 0 33.133-14.834 33.133-33.133v-182.536c0-9.15-7.417-16.567-16.567-16.567h-463.865c-9.15.001-16.567 7.418-16.567 16.567z" fill="#d88a55"/><g><g><path d="m471.367 423.363v-69.66c0-4.022-2.88-7.529-6.853-8.156-17.369-2.741-30.269-15.769-32.994-32.98-.63-3.978-4.13-6.867-8.158-6.867h-334.724c-4.028 0-7.528 2.889-8.158 6.867-2.725 17.21-15.625 30.239-32.994 32.98-3.973.627-6.853 4.134-6.853 8.156v69.66c0 4.022 2.879 7.529 6.853 8.157 17.369 2.741 30.27 15.769 32.994 32.98.63 3.978 4.13 6.867 8.158 6.867h334.723c4.028 0 7.528-2.889 8.158-6.867 2.725-17.211 15.625-30.239 32.994-32.98 3.974-.627 6.854-4.134 6.854-8.157z" fill="#c57a44"/></g></g><path d="m292.982 338.833h-94.965c-4.575 0-8.283 3.709-8.283 8.283v16.567c0 4.575 3.709 8.283 8.283 8.283h94.965c4.575 0 8.283-3.709 8.283-8.283v-16.567c0-4.574-3.708-8.283-8.283-8.283z" fill="#ffe880"/><path d="m313.983 338.833h-23c4.575 0 8.283 3.709 8.283 8.283v16.567c0 4.575-3.708 8.283-8.283 8.283h23c4.575 0 8.283-3.709 8.283-8.283v-16.567c.001-4.574-3.708-8.283-8.283-8.283z" fill="#ffd261"/></g><g><path d="m438.928 465.672c2.221-14.032 12.724-24.53 26.755-26.745 7.639-1.205 13.184-7.751 13.184-15.564v-69.66c0-7.814-5.545-14.36-13.184-15.565-14.032-2.214-24.534-12.712-26.756-26.745-1.21-7.645-7.757-13.194-15.565-13.194h-334.723c-7.809 0-14.355 5.549-15.566 13.194-2.221 14.033-12.723 24.53-26.755 26.745-7.639 1.205-13.184 7.751-13.184 15.565v69.66c0 7.813 5.545 14.359 13.184 15.564 14.031 2.215 24.534 12.712 26.755 26.745 1.211 7.646 7.757 13.194 15.566 13.194h334.723c7.809.001 14.355-5.548 15.566-13.194zm-351.039-2.345c-3.258-20.575-18.657-35.968-39.233-39.215-.282-.045-.521-.387-.521-.748v-69.66c0-.361.239-.704.521-.749 20.576-3.247 35.976-18.64 39.233-39.215.047-.297.384-.539.75-.539h334.723c.366 0 .703.242.75.539 3.258 20.576 18.657 35.969 39.233 39.215.282.045.522.388.522.749v69.66c0 .361-.239.703-.522.748-20.576 3.247-35.976 18.64-39.233 39.215-.047.298-.384.54-.75.54h-334.723c-.367 0-.703-.242-.75-.54z"/><path d="m313.983 331.333h-115.966c-8.703 0-15.783 7.081-15.783 15.783v16.566c0 8.703 7.08 15.784 15.783 15.784h115.967c8.703 0 15.783-7.081 15.783-15.784v-16.566c0-8.702-7.081-15.783-15.784-15.783zm.784 32.35c0 .432-.352.784-.783.784h-115.967c-.432 0-.783-.352-.783-.784v-16.566c0-.432.352-.783.783-.783h115.967c.432 0 .783.352.783.783z"/><path d="m487.934 264.764h-9.067v-224.131c-.001-22.405-18.228-40.633-40.634-40.633h-364.466c-22.406 0-40.633 18.228-40.633 40.633v32.365c0 4.142 3.357 7.5 7.5 7.5s7.5-3.358 7.5-7.5v-32.365c0-14.134 11.499-25.633 25.633-25.633h364.467c14.134 0 25.633 11.499 25.633 25.633v224.13h-19.287l-2.572-15.341c-3.325-19.828-18.075-35.792-37.58-40.671-.327-.082-.564-.363-.591-.7l-7.31-95.022c9.352-3.304 16.073-12.228 16.073-22.696 0-7.752-3.688-14.656-9.398-19.061.711-1.795 1.115-3.744 1.115-5.79v-8.282c0-13.271-10.796-24.067-24.066-24.067h-49.7c-6.955 0-13.227 2.969-17.625 7.702-6.852-4.961-15.13-7.702-23.791-7.702h-66.268c-8.657 0-16.936 2.743-23.79 7.703-4.398-4.734-10.67-7.703-17.626-7.703h-49.7c-13.271 0-24.066 10.796-24.066 24.067v8.283c0 2.045.403 3.994 1.115 5.79-5.71 4.405-9.398 11.308-9.398 19.061 0 10.468 6.721 19.393 16.073 22.696l-7.31 95.022c-.026.336-.264.618-.592.7-19.504 4.879-34.254 20.843-37.579 40.671l-2.572 15.341h-19.288v-156.766c0-4.142-3.357-7.5-7.5-7.5s-7.5 3.358-7.5 7.5v156.766h-9.067c-13.271 0-24.067 10.796-24.067 24.067v182.536c0 22.405 18.229 40.633 40.634 40.633h30.333c4.143 0 7.5-3.358 7.5-7.5s-3.357-7.5-7.5-7.5h-30.333c-14.135 0-25.634-11.499-25.634-25.633v-182.536c0-5 4.067-9.067 9.066-9.067h463.867c4.999 0 9.066 4.067 9.066 9.067v182.536c.001 14.134-11.498 25.633-25.633 25.633h-365.399c-4.143 0-7.5 3.358-7.5 7.5s3.357 7.5 7.5 7.5h365.399c22.406 0 40.634-18.228 40.634-40.633v-182.536c0-13.271-10.796-24.067-24.066-24.067zm-60.719-12.861 2.156 12.86h-147.943l2.156-12.86c2.025-12.073 10.079-22.098 21.105-26.801l34.208 15.203c5.244 2.331 10.873 3.496 16.503 3.496 5.629 0 11.259-1.165 16.502-3.496l34.208-15.203c11.026 4.703 19.08 14.729 21.105 26.801zm-181.435 12.861-2.572-15.341c-3.325-19.828-18.076-35.792-37.581-40.671-.327-.082-.564-.363-.591-.7l-7.309-95.022c2.243-.793 4.335-1.907 6.219-3.291 5.796 3.063 12.232 4.661 18.92 4.661h66.268c6.688 0 13.124-1.598 18.92-4.661 1.884 1.384 3.976 2.498 6.219 3.291l-7.31 95.022c-.026.336-.264.618-.592.7-19.504 4.879-34.255 20.843-37.58 40.671l-2.572 15.341zm-62.991-150.364 2.032 26.417h-56.441l2.032-26.417zm-59.671 94.802 4.107-53.385h58.749l4.107 53.385c.174 2.267.834 4.404 1.869 6.313l-24.939 11.084c-6.615 2.941-14.204 2.941-20.821 0l-24.94-11.085c1.035-1.909 1.694-4.045 1.868-6.312zm258.47-94.802 2.032 26.417h-56.441l2.032-26.417zm-59.669 94.802 4.106-53.385h58.749l4.107 53.385c.174 2.267.834 4.404 1.869 6.313l-24.94 11.084c-6.617 2.941-14.204 2.941-20.821 0l-24.939-11.084c1.035-1.909 1.695-4.046 1.869-6.313zm66.614-109.802h-66.267c-4.999 0-9.066-4.067-9.066-9.066 0-5 4.067-9.067 9.066-9.067h66.267c4.999 0 9.066 4.067 9.066 9.067.001 4.998-4.067 9.066-9.066 9.066zm-67.05-42.2c0-5 4.067-9.067 9.066-9.067h49.7c4.999 0 9.066 4.067 9.066 9.067v8.283c0 .432-.352.783-.783.783h-66.267c-.432 0-.783-.352-.783-.783v-8.283zm-98.617-9.067h66.268c6.54 0 12.735 2.475 17.454 6.872-.066.723-.104 1.455-.104 2.195v8.283c0 2.045.403 3.994 1.115 5.79-5.71 4.405-9.398 11.308-9.398 19.061 0 2.434.366 4.783 1.041 6.999-3.162 1.36-6.578 2.067-10.108 2.067h-66.268c-3.53 0-6.946-.707-10.108-2.067.675-2.216 1.041-4.565 1.041-6.999 0-7.752-3.688-14.656-9.398-19.061.711-1.795 1.115-3.744 1.115-5.79v-8.283c0-.741-.039-1.472-.105-2.196 4.72-4.396 10.919-6.871 17.455-6.871zm-100.182 17.35v-8.283c0-5 4.067-9.067 9.066-9.067h49.7c4.999 0 9.066 4.067 9.066 9.067v8.283c0 .432-.352.783-.783.783h-66.267c-.431.001-.782-.351-.782-.783zm.783 15.784h66.267c4.999 0 9.066 4.067 9.066 9.067 0 4.999-4.067 9.066-9.066 9.066h-66.267c-4.999 0-9.066-4.067-9.066-9.066-.001-5 4.067-9.067 9.066-9.067zm-38.682 170.636c2.025-12.073 10.079-22.099 21.105-26.801l34.208 15.204c5.244 2.331 10.872 3.496 16.502 3.496 5.629 0 11.26-1.165 16.503-3.496l34.208-15.203c11.026 4.702 19.08 14.728 21.105 26.8l2.157 12.86h-147.944z"/></g></g></svg>